<svg viewBox="0 0 399.6666666666667 93.60000000000001" preserveAspectRatio="xMidYMid meet" class="css-8aabad" id="cbfhdebf"><defs id="SvgjsDefs1001"></defs><g id="SvgjsG1007" featurekey="symbolContainer" transform="matrix(0.9,0,0,0.9,0,0)" fill="#74dbef"><rect xmlns="http://www.w3.org/2000/svg" width="98" height="104" rx="10" ry="10"></rect></g><g id="SvgjsG1008" featurekey="monogramFeature-0" transform="matrix(1.4943534046515476,0,0,1.4943534046515476,10.51411019745575,-11.08686007342903)" fill="#111"><path d="M27.802 17.555 c0.36416 -1.1497 15.14 8.1732 14.192 9.069 c-4.416 5.3687 -9.0282 10.548 -13.789 15.53 c2.5036 4.8386 5.2645 9.5676 8.3154 14.143 c0.8358 1.2979 -2.9402 4.749 -4.2952 3.7658 c-3.8357 -3.4124 -7.497 -7.041 -10.998 -10.843 c-3.6508 3.577 -7.3638 7.0596 -11.127 10.455 c-1.2407 1.0919 -5.1017 -2.262 -4.3181 -3.7391 c3.1181 -4.6625 6.1332 -9.3672 9.0024 -14.125 c-4.1725 -5.0859 -8.0856 -10.424 -11.75 -15.949 c-0.8409 -0.97494 14.86 -8.6394 15.074 -7.512 c1.2159 3.551 2.5417 7.0782 3.9793 10.572 c1.997 -3.755 3.9088 -7.5414 5.7145 -11.367 z"></path></g><g id="SvgjsG1009" featurekey="nameFeature-0" transform="matrix(1.4456557206094858,0,0,1.4456557206094858,105.68679036812212,3.6532894478603026)" fill="#74dbef"><path d="M14.74 26 l7.3808 10.544 c0.69564 0.99372 0.4538 2.363 -0.53964 3.0586 c-0.3832 0.26848 -0.82268 0.39723 -1.2575 0.39723 c-0.69256 0 -1.3736 -0.32668 -1.801 -0.93692 l-6.4636 -9.2336 l-6.4636 9.2336 c-0.42716 0.61052 -1.1088 0.93692 -1.801 0.93692 c-0.4348 0 -0.87428 -0.12875 -1.2575 -0.39723 c-0.99344 -0.69564 -1.2353 -2.0649 -0.53964 -3.0586 l7.3808 -10.544 l-7.3808 -10.544 c-0.6956 -0.99372 -0.45376 -2.363 0.53968 -3.0586 c0.994 -0.69564 2.363 -0.4538 3.0586 0.53964 l6.4636 9.2336 l6.4636 -9.2336 c0.69532 -0.99372 2.0646 -1.2356 3.0586 -0.53964 c0.99344 0.6956 1.2353 2.0648 0.53968 3.0586 z M41.176 19.412 c1.2128 0 2.1962 0.98328 2.1962 2.196 l0 15.338 c0 5.7668 -4.692 10.459 -10.459 10.459 c-1.2128 0 -2.196 -0.98328 -2.196 -2.196 s0.98328 -2.196 2.196 -2.196 c2.9375 0 5.3936 -2.0992 5.9484 -4.876 c-1.6902 1.1732 -3.7399 1.8634 -5.9488 1.8634 c-5.7668 0 -10.459 -4.692 -10.459 -10.459 l0 -7.9333 c0 -1.2128 0.98328 -2.196 2.196 -2.196 s2.196 0.98328 2.196 2.196 l0 7.9333 c0 3.3452 2.7215 6.0668 6.0668 6.0668 s6.0668 -2.7215 6.0668 -6.0668 l0 -7.9333 c0 -1.2128 0.98328 -2.196 2.196 -2.196 z M55.602 19.412 c1.2128 0 2.196 0.98328 2.196 2.196 s-0.98328 2.196 -2.196 2.196 c-3.2543 0 -5.902 2.6476 -5.902 5.902 l0 8.098 c0 1.2128 -0.98328 2.196 -2.196 2.196 s-2.196 -0.98328 -2.196 -2.196 l0 -16.196 c0 -1.2128 0.98328 -2.196 2.196 -2.196 c1.1071 0 2.0201 0.81996 2.1716 1.885 c1.677 -1.1856 3.721 -1.885 5.9264 -1.885 z M78.114 19.412 c1.2128 0 2.196 0.98328 2.196 2.196 l0 8.098 c0 5.6764 -4.6176 10.294 -10.294 10.294 s-10.294 -4.6176 -10.294 -10.294 l0 -8.098 c0 -1.2128 0.98328 -2.196 2.196 -2.196 s2.196 0.98328 2.196 2.196 l0 8.098 c0 3.2543 2.6476 5.902 5.902 5.902 s5.902 -2.6476 5.902 -5.902 l0 -8.098 c0 -1.2128 0.98328 -2.196 2.196 -2.196 z M96.19900000000001 27.509999999999998 c3.4434 0 6.2452 2.8016 6.2452 6.2452 s-2.8016 6.2452 -6.2452 6.2452 l-8.098 0 c-1.2128 0 -2.196 -0.98328 -2.196 -2.196 s0.98328 -2.196 2.196 -2.196 l8.098 0 c1.0217 0 1.8529 -0.8312 1.8529 -1.8529 s-0.8312 -1.8529 -1.8529 -1.8529 l-8.098 0 c-3.4434 0 -6.2452 -2.8016 -6.2452 -6.2452 s2.8016 -6.2452 6.2452 -6.2452 l8.098 0 c1.2128 0 2.196 0.98328 2.196 2.196 s-0.98328 2.196 -2.196 2.196 l-8.098 0 c-1.0217 0 -1.8529 0.8312 -1.8529 1.8529 s0.8312 1.8529 1.8529 1.8529 l8.098 0 z M133.64600000000002 27.345 c1.213 0 2.196 0.98328 2.196 2.196 c0 5.7668 -4.692 10.459 -10.459 10.459 s-10.459 -4.692 -10.459 -10.459 l0 -7.0824 c0 -5.7668 4.692 -10.459 10.459 -10.459 s10.459 4.692 10.459 10.459 c0 1.2128 -0.98328 2.196 -2.196 2.196 s-2.196 -0.98328 -2.196 -2.196 c0 -3.3452 -2.7215 -6.0668 -6.0668 -6.0668 s-6.0668 2.7215 -6.0668 6.0668 l0 7.0824 c0 3.3452 2.7215 6.0668 6.0668 6.0668 s6.0668 -2.7215 6.0668 -6.0668 c0 -1.2128 0.98328 -2.196 2.196 -2.196 z M148.072 19.412 c5.6764 0 10.294 4.6176 10.294 10.294 s-4.6176 10.294 -10.294 10.294 s-10.294 -4.6176 -10.294 -10.294 s4.6176 -10.294 10.294 -10.294 z M148.072 35.608 c3.2543 0 5.902 -2.6476 5.902 -5.902 s-2.6476 -5.902 -5.902 -5.902 s-5.902 2.6476 -5.902 5.902 s2.6476 5.902 5.902 5.902 z M178.649 12 c1.2128 0 2.1961 0.98328 2.1961 2.196 l0 23.608 c0 1.2128 -0.98328 2.196 -2.196 2.196 c-1.103 0 -2.013 -0.81364 -2.1697 -1.873 c-1.6707 1.1782 -3.7056 1.873 -5.9008 1.873 c-5.6612 0 -10.267 -4.6056 -10.267 -10.267 s4.6056 -10.267 10.267 -10.267 c2.1837 0 4.2088 0.6874 5.8744 1.8541 l0 -7.1249 c0 -1.2128 0.98328 -2.196 2.196 -2.196 z M170.57899999999998 35.608 c3.2392 0 5.8744 -2.6353 5.8744 -5.8744 s-2.6353 -5.8744 -5.8744 -5.8744 s-5.8744 2.6353 -5.8744 5.8744 s2.6353 5.8744 5.8744 5.8744 z M193.06 19.412 c5.6764 0 10.294 4.6176 10.294 10.294 c0 1.2128 -0.98328 2.196 -2.196 2.196 l-13.576 0 c0.87292 2.17 2.9995 3.7059 5.4784 3.7059 c1.5765 0 3.0586 -0.6138 4.1732 -1.7286 c0.85784 -0.85756 2.248 -0.85732 3.1058 0 c0.85784 0.85784 0.85756 2.2482 0 3.1058 c-1.9446 1.9443 -4.5296 3.0149 -7.2792 3.0149 c-5.6764 0 -10.294 -4.6176 -10.294 -10.294 s4.6176 -10.294 10.294 -10.294 z M187.5816 27.509999999999998 l10.957 0 c-0.87292 -2.17 -2.9995 -3.7059 -5.4784 -3.7059 s-4.6056 1.5359 -5.4784 3.7059 z"></path></g></svg>